<?xml version="1.0" encoding="UTF-8"?>
<svg id="Layer_2" data-name="Layer 2" xmlns="http://www.w3.org/2000/svg" xmlns:xlink="http://www.w3.org/1999/xlink" viewBox="0 0 1673.2 167.22">
  <defs>
    <style>
      .cls-1 {
        fill: url(#linear-gradient);
      }

      .cls-1, .cls-2, .cls-3 {
        stroke-width: 0px;
      }

      .cls-2 {
        fill: #bababa;
      }

      .cls-3 {
        fill: #136cb0;
      }
    </style>
    <linearGradient id="linear-gradient" x1="257.16" y1="86.35" x2="257.16" y2="16.81" gradientUnits="userSpaceOnUse">
      <stop offset="0" stop-color="#fff"/>
      <stop offset="1" stop-color="#237fc6"/>
    </linearGradient>
  </defs>
  <g id="Layer_1-2" data-name="Layer 1">
    <g>
      <g>
        <rect class="cls-3" x="107.97" y="86.92" width="16.74" height="78.37"/>
        <path class="cls-3" d="m204.73,101.67v16.74h42.48v12.68c0,9.66-7.8,17.47-17.42,17.47h-.91s-41.59,0-41.59,0h0s-7.59,0-7.59,0c-9.66,0-17.47-7.8-17.47-17.47v-44.16h-16.74v44.93c0,18.46,14.97,33.44,33.44,33.44h51.58c18.46,0,33.44-14.97,33.44-33.44v-13.45h0v-16.74h-59.23Z"/>
        <path class="cls-3" d="m50.99,95.74c4.36-9.3,13.84-15.29,24.18-15.29h153.71v-16.74H75.18c-16.88,0-32.21,9.75-39.33,24.95L0,165.29h18.46l9.37-20.04h63.85v-16.74h-56.02l15.33-32.77Z"/>
      </g>
      <path class="cls-2" d="m228.88,34.31v16.74H84.34c-5.81,0-11.25,2.54-14.93,6.81h-19.1c7.4-14.43,22.28-23.55,38.61-23.55h139.96Z"/>
      <path class="cls-2" d="m228.88,4.91v16.74H97.45c-5.81,0-11.25,2.54-14.93,6.81h-19.1c7.4-14.43,22.28-23.55,38.61-23.55h126.85Z"/>
      <path class="cls-1" d="m251.33,0c1.94,3.68,7.66,11.31,15.43,34.04,9.57,28.01,3.19,50.43-9.41,50.43-14.54,0-17.19-19.1-11.82-36.73,3.98-13.05,6.81-36.21,5.8-47.75Z"/>
      <g>
        <path class="cls-3" d="m1198.42,165.29v-22.17h62.67c5.47,0,8.74-3.28,8.74-8.78s-3.27-8.78-8.74-8.78h-36.73c-17.54,0-30.78-13.31-30.78-30.95s13.52-30.95,30.78-30.95h61.2v22.17h-59.65c-5.47,0-8.74,3.28-8.74,8.78s3.27,8.78,8.74,8.78h36.73c17.83,0,30.78,13.02,30.78,30.95v1.39h-.05c-.68,14.77-12.07,29.56-30.74,29.56h-64.19Z"/>
        <polygon class="cls-3" points="766.91 165.29 766.91 85.45 725.13 85.45 725.13 63.82 831.39 63.82 831.39 85.45 789.99 85.45 789.99 165.29 766.91 165.29"/>
        <path class="cls-3" d="m924.41,165.29l-16.47-34.4h-38.16v34.4h-23.1V63.65h69.26c16.92,0,30.69,14.82,30.69,33.05,0,10.72-5.5,24.78-15.74,30.6l17.86,37.99h-24.34Zm-10-56c5.35,0,9.08-6.64,9.08-12.6,0-5.52-3.47-11.47-9.08-11.47h-44.64v24.07h44.64Z"/>
        <polygon class="cls-3" points="1163.06 165.29 1102.54 100.48 1102.54 165.29 1079.44 165.29 1079.44 63.65 1097.95 63.65 1158.47 128.47 1158.47 63.65 1181.57 63.65 1181.57 165.29 1163.06 165.29"/>
        <path class="cls-3" d="m439.01,165.29v-22.16h62c5.4,0,8.63-3.28,8.63-8.78s-3.22-8.77-8.63-8.77h-36.34c-17.35,0-30.44-13.3-30.44-30.93s13.37-30.93,30.44-30.93h60.54v22.18h-59.01c-5.41,0-8.64,3.28-8.64,8.77s3.23,8.77,8.64,8.77h36.33c17.65,0,30.45,13.01,30.45,30.94v3.54l-.2-.22c-1.53,14.08-12.61,27.59-30.27,27.59h-63.49Z"/>
        <rect class="cls-3" x="542.98" y="63.76" width="23.12" height="101.53"/>
        <path class="cls-3" d="m668.64,165.29l-6.54-13.34h-55.23l-6.54,13.34h-24.8l49.73-101.53h18.44l49.73,101.53h-24.8Zm-17.12-34.89l-17.07-34.86-17.07,34.86h34.14Z"/>
        <path class="cls-3" d="m1578.19,165.3v-22.17h62.69c5.46,0,8.72-3.28,8.72-8.77s-3.26-8.77-8.72-8.77h-36.75c-17.55,0-30.78-13.3-30.78-30.94s13.52-30.94,30.78-30.94h61.21v22.16h-59.67c-5.47,0-8.74,3.28-8.74,8.77s3.27,8.77,8.74,8.77h36.73c17.84,0,30.79,13.01,30.79,30.94v1.39h-.05c-.68,14.76-12.07,29.55-30.76,29.55h-64.19Z"/>
        <path class="cls-3" d="m1402.38,167.22c-34.34,0-58.33-21.42-58.33-52.08s22.75-50.9,56.6-51.39l1.4-.02v.03c1.15-.04,2.77-.05,5.16-.05h38.01v21.91h-43.38c-22.52.71-35.45,11.47-35.45,29.52s14.41,30.19,35.86,30.19c6.63,0,12.77-1.06,17.76-3.08l.45-.18c.46-.2.93-.43,1.4-.65l.82-.4c2.19-1.14,4.1-2.5,5.65-4.04,3.57-3.39,6.04-7.75,7.09-12.43h-39.11v-20.42h60.06v2.71c0,.58.06,2.99.07,3.6l.02,1.63c.05,2.18.09,4.53.06,6.82-.02.97-.07,1.96-.15,2.93-.27,3.76-.99,7.53-2.15,11.19-.51,1.61-1.08,3.14-1.7,4.55-2.32,5.33-5.59,10.11-9.7,14.21-4.01,4.02-8.8,7.35-14.24,9.89-5.43,2.53-11.37,4.22-17.66,5.02-2.83.35-5.71.52-8.56.52Z"/>
        <path class="cls-3" d="m1548.79,165.29l-6.54-13.33h-55.23l-6.54,13.33h-24.82l49.75-101.58h18.44l49.73,101.58h-24.8Zm-17.1-34.89l-17.07-34.87-17.07,34.87h34.14Z"/>
        <path class="cls-3" d="m407.3,165.29l-6.54-13.34h-55.23l-6.54,13.34h-24.8l49.73-101.53h18.44l49.73,101.53h-24.8Zm-17.12-34.89l-17.07-34.86-17.07,34.86h34.14Z"/>
        <path class="cls-3" d="m1046.94,165.29l-6.54-13.34h-55.23l-6.54,13.34h-24.8l49.73-101.53h18.44l49.73,101.53h-24.8Zm-17.12-34.89l-17.07-34.86-17.07,34.86h34.14Z"/>
      </g>
    </g>
  </g>
</svg>